<mxfile host="app.diagrams.net" modified="2022-08-26T05:55:32.560Z" agent="5.0 (Windows NT 10.0; Win64; x64) AppleWebKit/537.36 (KHTML, like Gecko) Chrome/104.0.0.0 Safari/537.36" etag="NuAZQaj66sRVi8AvRS_U" version="20.2.7" type="github" pages="5">
  <diagram id="kgpKYQtTHZ0yAKxKKP6v" name="Page-1">
    <mxGraphModel dx="1038" dy="615" grid="1" gridSize="10" guides="1" tooltips="1" connect="1" arrows="1" fold="1" page="1" pageScale="1" pageWidth="850" pageHeight="1100" math="0" shadow="0">
      <root>
        <mxCell id="0" />
        <mxCell id="1" parent="0" />
        <mxCell id="-ALn_Ugp3yE875ARaoUf-1" value="USER&lt;br&gt;" style="shape=umlActor;verticalLabelPosition=bottom;verticalAlign=top;html=1;outlineConnect=0;" parent="1" vertex="1">
          <mxGeometry x="120" y="20" width="30" height="60" as="geometry" />
        </mxCell>
        <mxCell id="-ALn_Ugp3yE875ARaoUf-3" value="E-commerce site" style="rounded=0;whiteSpace=wrap;html=1;" parent="1" vertex="1">
          <mxGeometry x="210" y="30" width="120" height="60" as="geometry" />
        </mxCell>
        <mxCell id="-ALn_Ugp3yE875ARaoUf-4" value="User database" style="rounded=0;whiteSpace=wrap;html=1;" parent="1" vertex="1">
          <mxGeometry x="350" y="30" width="120" height="60" as="geometry" />
        </mxCell>
        <mxCell id="-ALn_Ugp3yE875ARaoUf-5" value="Product database" style="rounded=0;whiteSpace=wrap;html=1;" parent="1" vertex="1">
          <mxGeometry x="490" y="30" width="120" height="60" as="geometry" />
        </mxCell>
        <mxCell id="-ALn_Ugp3yE875ARaoUf-6" value="ADMIN/HOST" style="shape=umlActor;verticalLabelPosition=bottom;verticalAlign=top;html=1;outlineConnect=0;" parent="1" vertex="1">
          <mxGeometry x="670" y="20" width="30" height="60" as="geometry" />
        </mxCell>
        <mxCell id="-ALn_Ugp3yE875ARaoUf-11" value="" style="endArrow=none;dashed=1;html=1;rounded=0;startArrow=none;" parent="1" edge="1">
          <mxGeometry width="50" height="50" relative="1" as="geometry">
            <mxPoint x="130" y="860" as="sourcePoint" />
            <mxPoint x="130" y="580" as="targetPoint" />
            <Array as="points" />
          </mxGeometry>
        </mxCell>
        <mxCell id="-ALn_Ugp3yE875ARaoUf-12" value="" style="endArrow=none;dashed=1;html=1;rounded=0;startArrow=none;" parent="1" source="-ALn_Ugp3yE875ARaoUf-61" edge="1">
          <mxGeometry width="50" height="50" relative="1" as="geometry">
            <mxPoint x="409.41" y="91.001162109375" as="sourcePoint" />
            <mxPoint x="410" y="1160" as="targetPoint" />
            <Array as="points">
              <mxPoint x="409.41" y="320.06" />
            </Array>
          </mxGeometry>
        </mxCell>
        <mxCell id="-ALn_Ugp3yE875ARaoUf-13" value="" style="endArrow=none;dashed=1;html=1;rounded=0;startArrow=none;" parent="1" source="-ALn_Ugp3yE875ARaoUf-36" edge="1">
          <mxGeometry width="50" height="50" relative="1" as="geometry">
            <mxPoint x="560" y="91.001162109375" as="sourcePoint" />
            <mxPoint x="560" y="1160" as="targetPoint" />
          </mxGeometry>
        </mxCell>
        <mxCell id="-ALn_Ugp3yE875ARaoUf-14" value="" style="endArrow=none;dashed=1;html=1;rounded=0;" parent="1" edge="1">
          <mxGeometry width="50" height="50" relative="1" as="geometry">
            <mxPoint x="684.41" y="100.001162109375" as="sourcePoint" />
            <mxPoint x="690" y="1160" as="targetPoint" />
          </mxGeometry>
        </mxCell>
        <mxCell id="-ALn_Ugp3yE875ARaoUf-15" value="" style="endArrow=none;dashed=1;html=1;rounded=0;startArrow=none;" parent="1" source="GDfsUicPdsfKHo_18G9Y-29" edge="1">
          <mxGeometry width="50" height="50" relative="1" as="geometry">
            <mxPoint x="269.40999999999997" y="90.001162109375" as="sourcePoint" />
            <mxPoint x="270" y="1160" as="targetPoint" />
          </mxGeometry>
        </mxCell>
        <mxCell id="-ALn_Ugp3yE875ARaoUf-22" style="edgeStyle=orthogonalEdgeStyle;rounded=0;orthogonalLoop=1;jettySize=auto;html=1;entryX=0;entryY=0.5;entryDx=0;entryDy=0;" parent="1" source="-ALn_Ugp3yE875ARaoUf-16" target="-ALn_Ugp3yE875ARaoUf-18" edge="1">
          <mxGeometry relative="1" as="geometry" />
        </mxCell>
        <mxCell id="-ALn_Ugp3yE875ARaoUf-16" value="" style="rounded=0;whiteSpace=wrap;html=1;" parent="1" vertex="1">
          <mxGeometry x="110" y="130" width="40" height="30" as="geometry" />
        </mxCell>
        <mxCell id="-ALn_Ugp3yE875ARaoUf-21" style="edgeStyle=orthogonalEdgeStyle;rounded=0;orthogonalLoop=1;jettySize=auto;html=1;entryX=0;entryY=0.5;entryDx=0;entryDy=0;" parent="1" source="-ALn_Ugp3yE875ARaoUf-18" target="-ALn_Ugp3yE875ARaoUf-20" edge="1">
          <mxGeometry relative="1" as="geometry" />
        </mxCell>
        <mxCell id="-ALn_Ugp3yE875ARaoUf-18" value="" style="rounded=0;whiteSpace=wrap;html=1;" parent="1" vertex="1">
          <mxGeometry x="250" y="130" width="40" height="30" as="geometry" />
        </mxCell>
        <mxCell id="-ALn_Ugp3yE875ARaoUf-20" value="" style="rounded=0;whiteSpace=wrap;html=1;" parent="1" vertex="1">
          <mxGeometry x="390" y="130" width="40" height="30" as="geometry" />
        </mxCell>
        <mxCell id="-ALn_Ugp3yE875ARaoUf-23" value="sign up" style="text;html=1;strokeColor=none;fillColor=none;align=center;verticalAlign=middle;whiteSpace=wrap;rounded=0;" parent="1" vertex="1">
          <mxGeometry x="170" y="110" width="60" height="30" as="geometry" />
        </mxCell>
        <mxCell id="-ALn_Ugp3yE875ARaoUf-24" value="Register&lt;br&gt;User" style="text;html=1;strokeColor=none;fillColor=none;align=center;verticalAlign=middle;whiteSpace=wrap;rounded=0;" parent="1" vertex="1">
          <mxGeometry x="310" y="110" width="60" height="30" as="geometry" />
        </mxCell>
        <mxCell id="-ALn_Ugp3yE875ARaoUf-29" style="edgeStyle=orthogonalEdgeStyle;rounded=0;orthogonalLoop=1;jettySize=auto;html=1;" parent="1" source="-ALn_Ugp3yE875ARaoUf-25" target="-ALn_Ugp3yE875ARaoUf-26" edge="1">
          <mxGeometry relative="1" as="geometry" />
        </mxCell>
        <mxCell id="-ALn_Ugp3yE875ARaoUf-25" value="" style="rounded=0;whiteSpace=wrap;html=1;" parent="1" vertex="1">
          <mxGeometry x="390" y="180" width="40" height="30" as="geometry" />
        </mxCell>
        <mxCell id="-ALn_Ugp3yE875ARaoUf-30" style="edgeStyle=orthogonalEdgeStyle;rounded=0;orthogonalLoop=1;jettySize=auto;html=1;" parent="1" source="-ALn_Ugp3yE875ARaoUf-26" target="-ALn_Ugp3yE875ARaoUf-27" edge="1">
          <mxGeometry relative="1" as="geometry" />
        </mxCell>
        <mxCell id="-ALn_Ugp3yE875ARaoUf-26" value="" style="rounded=0;whiteSpace=wrap;html=1;" parent="1" vertex="1">
          <mxGeometry x="250" y="180" width="40" height="30" as="geometry" />
        </mxCell>
        <mxCell id="-ALn_Ugp3yE875ARaoUf-27" value="" style="rounded=0;whiteSpace=wrap;html=1;" parent="1" vertex="1">
          <mxGeometry x="110" y="180" width="40" height="30" as="geometry" />
        </mxCell>
        <mxCell id="-ALn_Ugp3yE875ARaoUf-31" value="password&amp;nbsp;&lt;br&gt;valid" style="text;html=1;strokeColor=none;fillColor=none;align=center;verticalAlign=middle;whiteSpace=wrap;rounded=0;" parent="1" vertex="1">
          <mxGeometry x="310" y="160" width="60" height="30" as="geometry" />
        </mxCell>
        <mxCell id="-ALn_Ugp3yE875ARaoUf-32" value="login" style="text;html=1;strokeColor=none;fillColor=none;align=center;verticalAlign=middle;whiteSpace=wrap;rounded=0;" parent="1" vertex="1">
          <mxGeometry x="180" y="160" width="60" height="30" as="geometry" />
        </mxCell>
        <mxCell id="-ALn_Ugp3yE875ARaoUf-38" style="edgeStyle=orthogonalEdgeStyle;rounded=0;orthogonalLoop=1;jettySize=auto;html=1;entryX=1;entryY=0.5;entryDx=0;entryDy=0;" parent="1" source="-ALn_Ugp3yE875ARaoUf-36" target="-ALn_Ugp3yE875ARaoUf-37" edge="1">
          <mxGeometry relative="1" as="geometry" />
        </mxCell>
        <mxCell id="-ALn_Ugp3yE875ARaoUf-39" value="show product" style="text;html=1;strokeColor=none;fillColor=none;align=center;verticalAlign=middle;whiteSpace=wrap;rounded=0;" parent="1" vertex="1">
          <mxGeometry x="300" y="270" width="60" height="30" as="geometry" />
        </mxCell>
        <mxCell id="-ALn_Ugp3yE875ARaoUf-42" style="edgeStyle=orthogonalEdgeStyle;rounded=0;orthogonalLoop=1;jettySize=auto;html=1;entryX=1;entryY=0.5;entryDx=0;entryDy=0;" parent="1" source="-ALn_Ugp3yE875ARaoUf-40" target="-ALn_Ugp3yE875ARaoUf-41" edge="1">
          <mxGeometry relative="1" as="geometry" />
        </mxCell>
        <mxCell id="-ALn_Ugp3yE875ARaoUf-40" value="" style="rounded=0;whiteSpace=wrap;html=1;" parent="1" vertex="1">
          <mxGeometry x="660" y="130" width="50" height="30" as="geometry" />
        </mxCell>
        <mxCell id="-ALn_Ugp3yE875ARaoUf-41" value="" style="rounded=0;whiteSpace=wrap;html=1;" parent="1" vertex="1">
          <mxGeometry x="540" y="130" width="40" height="30" as="geometry" />
        </mxCell>
        <mxCell id="-ALn_Ugp3yE875ARaoUf-43" value="register&amp;nbsp;&lt;br&gt;Product" style="text;html=1;strokeColor=none;fillColor=none;align=center;verticalAlign=middle;whiteSpace=wrap;rounded=0;" parent="1" vertex="1">
          <mxGeometry x="590" y="110" width="60" height="30" as="geometry" />
        </mxCell>
        <mxCell id="-ALn_Ugp3yE875ARaoUf-36" value="" style="rounded=0;whiteSpace=wrap;html=1;" parent="1" vertex="1">
          <mxGeometry x="540" y="280" width="40" height="50" as="geometry" />
        </mxCell>
        <mxCell id="-ALn_Ugp3yE875ARaoUf-44" value="" style="endArrow=none;dashed=1;html=1;rounded=0;" parent="1" target="-ALn_Ugp3yE875ARaoUf-36" edge="1">
          <mxGeometry width="50" height="50" relative="1" as="geometry">
            <mxPoint x="560" y="91.00116210937495" as="sourcePoint" />
            <mxPoint x="560" y="550.06" as="targetPoint" />
          </mxGeometry>
        </mxCell>
        <mxCell id="-ALn_Ugp3yE875ARaoUf-37" value="" style="rounded=0;whiteSpace=wrap;html=1;" parent="1" vertex="1">
          <mxGeometry x="110" y="280" width="40" height="50" as="geometry" />
        </mxCell>
        <mxCell id="-ALn_Ugp3yE875ARaoUf-45" value="" style="endArrow=none;dashed=1;html=1;rounded=0;" parent="1" target="-ALn_Ugp3yE875ARaoUf-37" edge="1">
          <mxGeometry width="50" height="50" relative="1" as="geometry">
            <mxPoint x="130" y="120.941162109375" as="sourcePoint" />
            <mxPoint x="130" y="580" as="targetPoint" />
          </mxGeometry>
        </mxCell>
        <mxCell id="-ALn_Ugp3yE875ARaoUf-46" value="" style="rounded=0;whiteSpace=wrap;html=1;" parent="1" vertex="1">
          <mxGeometry x="110" y="230" width="40" height="30" as="geometry" />
        </mxCell>
        <mxCell id="-ALn_Ugp3yE875ARaoUf-50" style="edgeStyle=orthogonalEdgeStyle;rounded=0;orthogonalLoop=1;jettySize=auto;html=1;entryX=1;entryY=0.5;entryDx=0;entryDy=0;" parent="1" source="-ALn_Ugp3yE875ARaoUf-47" target="-ALn_Ugp3yE875ARaoUf-46" edge="1">
          <mxGeometry relative="1" as="geometry" />
        </mxCell>
        <mxCell id="-ALn_Ugp3yE875ARaoUf-47" value="" style="rounded=0;whiteSpace=wrap;html=1;" parent="1" vertex="1">
          <mxGeometry x="250" y="230" width="40" height="30" as="geometry" />
        </mxCell>
        <mxCell id="-ALn_Ugp3yE875ARaoUf-49" style="edgeStyle=orthogonalEdgeStyle;rounded=0;orthogonalLoop=1;jettySize=auto;html=1;entryX=1;entryY=0.5;entryDx=0;entryDy=0;" parent="1" source="-ALn_Ugp3yE875ARaoUf-48" target="-ALn_Ugp3yE875ARaoUf-47" edge="1">
          <mxGeometry relative="1" as="geometry" />
        </mxCell>
        <mxCell id="-ALn_Ugp3yE875ARaoUf-48" value="" style="rounded=0;whiteSpace=wrap;html=1;" parent="1" vertex="1">
          <mxGeometry x="390" y="230" width="40" height="30" as="geometry" />
        </mxCell>
        <mxCell id="-ALn_Ugp3yE875ARaoUf-51" value="invalid&amp;nbsp;&lt;br&gt;password" style="text;html=1;strokeColor=none;fillColor=none;align=center;verticalAlign=middle;whiteSpace=wrap;rounded=0;" parent="1" vertex="1">
          <mxGeometry x="310" y="210" width="60" height="30" as="geometry" />
        </mxCell>
        <mxCell id="-ALn_Ugp3yE875ARaoUf-52" value="retry" style="text;html=1;strokeColor=none;fillColor=none;align=center;verticalAlign=middle;whiteSpace=wrap;rounded=0;" parent="1" vertex="1">
          <mxGeometry x="170" y="209" width="60" height="30" as="geometry" />
        </mxCell>
        <mxCell id="-ALn_Ugp3yE875ARaoUf-57" style="edgeStyle=orthogonalEdgeStyle;rounded=0;orthogonalLoop=1;jettySize=auto;html=1;entryX=0;entryY=0.5;entryDx=0;entryDy=0;exitX=1;exitY=0.25;exitDx=0;exitDy=0;" parent="1" target="-ALn_Ugp3yE875ARaoUf-54" edge="1">
          <mxGeometry relative="1" as="geometry">
            <Array as="points">
              <mxPoint x="150" y="460" />
            </Array>
            <mxPoint x="150" y="467.5" as="sourcePoint" />
          </mxGeometry>
        </mxCell>
        <mxCell id="-ALn_Ugp3yE875ARaoUf-53" value="" style="rounded=0;whiteSpace=wrap;html=1;" parent="1" vertex="1">
          <mxGeometry x="110" y="420" width="40" height="150" as="geometry" />
        </mxCell>
        <mxCell id="GDfsUicPdsfKHo_18G9Y-9" style="edgeStyle=orthogonalEdgeStyle;rounded=0;orthogonalLoop=1;jettySize=auto;html=1;entryX=0;entryY=0.5;entryDx=0;entryDy=0;" parent="1" source="-ALn_Ugp3yE875ARaoUf-54" target="-ALn_Ugp3yE875ARaoUf-61" edge="1">
          <mxGeometry relative="1" as="geometry" />
        </mxCell>
        <mxCell id="-ALn_Ugp3yE875ARaoUf-54" value="" style="rounded=0;whiteSpace=wrap;html=1;" parent="1" vertex="1">
          <mxGeometry x="250" y="430" width="40" height="60" as="geometry" />
        </mxCell>
        <mxCell id="-ALn_Ugp3yE875ARaoUf-59" style="edgeStyle=orthogonalEdgeStyle;rounded=0;orthogonalLoop=1;jettySize=auto;html=1;entryX=0;entryY=0.5;entryDx=0;entryDy=0;exitX=1;exitY=0.5;exitDx=0;exitDy=0;startArrow=none;" parent="1" source="-ALn_Ugp3yE875ARaoUf-61" target="-ALn_Ugp3yE875ARaoUf-56" edge="1">
          <mxGeometry relative="1" as="geometry">
            <mxPoint x="430" y="460" as="sourcePoint" />
          </mxGeometry>
        </mxCell>
        <mxCell id="-ALn_Ugp3yE875ARaoUf-56" value="" style="rounded=0;whiteSpace=wrap;html=1;" parent="1" vertex="1">
          <mxGeometry x="540" y="430" width="40" height="60" as="geometry" />
        </mxCell>
        <mxCell id="-ALn_Ugp3yE875ARaoUf-63" style="edgeStyle=orthogonalEdgeStyle;rounded=0;orthogonalLoop=1;jettySize=auto;html=1;entryX=0.984;entryY=0.702;entryDx=0;entryDy=0;entryPerimeter=0;" parent="1" source="-ALn_Ugp3yE875ARaoUf-60" edge="1">
          <mxGeometry relative="1" as="geometry">
            <Array as="points">
              <mxPoint x="220" y="535" />
              <mxPoint x="220" y="535" />
            </Array>
            <mxPoint x="149.3599999999999" y="535.3" as="targetPoint" />
          </mxGeometry>
        </mxCell>
        <mxCell id="-ALn_Ugp3yE875ARaoUf-60" value="" style="rounded=0;whiteSpace=wrap;html=1;" parent="1" vertex="1">
          <mxGeometry x="250" y="510" width="40" height="60" as="geometry" />
        </mxCell>
        <mxCell id="GDfsUicPdsfKHo_18G9Y-1" value="select product" style="text;html=1;strokeColor=none;fillColor=none;align=center;verticalAlign=middle;whiteSpace=wrap;rounded=0;" parent="1" vertex="1">
          <mxGeometry x="170" y="430" width="60" height="30" as="geometry" />
        </mxCell>
        <mxCell id="GDfsUicPdsfKHo_18G9Y-2" value="enter in database" style="text;html=1;strokeColor=none;fillColor=none;align=center;verticalAlign=middle;whiteSpace=wrap;rounded=0;" parent="1" vertex="1">
          <mxGeometry x="310" y="420" width="60" height="30" as="geometry" />
        </mxCell>
        <mxCell id="GDfsUicPdsfKHo_18G9Y-6" value="" style="endArrow=none;dashed=1;html=1;rounded=0;" parent="1" target="-ALn_Ugp3yE875ARaoUf-61" edge="1">
          <mxGeometry width="50" height="50" relative="1" as="geometry">
            <mxPoint x="409.40999999999985" y="91.00116210937495" as="sourcePoint" />
            <mxPoint x="409.40999999999985" y="550.06" as="targetPoint" />
            <Array as="points" />
          </mxGeometry>
        </mxCell>
        <mxCell id="-ALn_Ugp3yE875ARaoUf-61" value="" style="rounded=0;whiteSpace=wrap;html=1;" parent="1" vertex="1">
          <mxGeometry x="390" y="430" width="40" height="60" as="geometry" />
        </mxCell>
        <mxCell id="GDfsUicPdsfKHo_18G9Y-8" value="" style="edgeStyle=orthogonalEdgeStyle;rounded=0;orthogonalLoop=1;jettySize=auto;html=1;entryX=0;entryY=0.5;entryDx=0;entryDy=0;exitX=1;exitY=0.5;exitDx=0;exitDy=0;endArrow=none;" parent="1" source="-ALn_Ugp3yE875ARaoUf-54" target="-ALn_Ugp3yE875ARaoUf-61" edge="1">
          <mxGeometry relative="1" as="geometry">
            <mxPoint x="290" y="460" as="sourcePoint" />
            <mxPoint x="530" y="460" as="targetPoint" />
          </mxGeometry>
        </mxCell>
        <mxCell id="GDfsUicPdsfKHo_18G9Y-10" value="enter in database" style="text;html=1;strokeColor=none;fillColor=none;align=center;verticalAlign=middle;whiteSpace=wrap;rounded=0;" parent="1" vertex="1">
          <mxGeometry x="450" y="430" width="60" height="30" as="geometry" />
        </mxCell>
        <mxCell id="GDfsUicPdsfKHo_18G9Y-15" value="confomation" style="text;html=1;strokeColor=none;fillColor=none;align=center;verticalAlign=middle;whiteSpace=wrap;rounded=0;" parent="1" vertex="1">
          <mxGeometry x="170" y="500" width="60" height="30" as="geometry" />
        </mxCell>
        <mxCell id="GDfsUicPdsfKHo_18G9Y-18" style="edgeStyle=orthogonalEdgeStyle;rounded=0;orthogonalLoop=1;jettySize=auto;html=1;entryX=0;entryY=0.5;entryDx=0;entryDy=0;" parent="1" source="GDfsUicPdsfKHo_18G9Y-16" target="GDfsUicPdsfKHo_18G9Y-17" edge="1">
          <mxGeometry relative="1" as="geometry" />
        </mxCell>
        <mxCell id="GDfsUicPdsfKHo_18G9Y-16" value="" style="rounded=0;whiteSpace=wrap;html=1;" parent="1" vertex="1">
          <mxGeometry x="110" y="580" width="40" height="60" as="geometry" />
        </mxCell>
        <mxCell id="GDfsUicPdsfKHo_18G9Y-17" value="" style="rounded=0;whiteSpace=wrap;html=1;" parent="1" vertex="1">
          <mxGeometry x="250" y="580" width="40" height="60" as="geometry" />
        </mxCell>
        <mxCell id="GDfsUicPdsfKHo_18G9Y-19" value="payment&amp;nbsp;&lt;br&gt;validate" style="text;html=1;strokeColor=none;fillColor=none;align=center;verticalAlign=middle;whiteSpace=wrap;rounded=0;" parent="1" vertex="1">
          <mxGeometry x="160" y="570" width="60" height="30" as="geometry" />
        </mxCell>
        <mxCell id="GDfsUicPdsfKHo_18G9Y-22" style="edgeStyle=orthogonalEdgeStyle;rounded=0;orthogonalLoop=1;jettySize=auto;html=1;entryX=1;entryY=0.5;entryDx=0;entryDy=0;" parent="1" source="GDfsUicPdsfKHo_18G9Y-20" target="GDfsUicPdsfKHo_18G9Y-21" edge="1">
          <mxGeometry relative="1" as="geometry" />
        </mxCell>
        <mxCell id="GDfsUicPdsfKHo_18G9Y-25" style="edgeStyle=orthogonalEdgeStyle;rounded=0;orthogonalLoop=1;jettySize=auto;html=1;" parent="1" source="GDfsUicPdsfKHo_18G9Y-20" target="GDfsUicPdsfKHo_18G9Y-24" edge="1">
          <mxGeometry relative="1" as="geometry" />
        </mxCell>
        <mxCell id="GDfsUicPdsfKHo_18G9Y-20" value="" style="rounded=0;whiteSpace=wrap;html=1;" parent="1" vertex="1">
          <mxGeometry x="250" y="660" width="40" height="60" as="geometry" />
        </mxCell>
        <mxCell id="GDfsUicPdsfKHo_18G9Y-21" value="" style="rounded=0;whiteSpace=wrap;html=1;" parent="1" vertex="1">
          <mxGeometry x="110" y="660" width="40" height="60" as="geometry" />
        </mxCell>
        <mxCell id="GDfsUicPdsfKHo_18G9Y-23" value="payment succeed" style="text;html=1;strokeColor=none;fillColor=none;align=center;verticalAlign=middle;whiteSpace=wrap;rounded=0;" parent="1" vertex="1">
          <mxGeometry x="160" y="650" width="60" height="30" as="geometry" />
        </mxCell>
        <mxCell id="GDfsUicPdsfKHo_18G9Y-24" value="" style="rounded=0;whiteSpace=wrap;html=1;" parent="1" vertex="1">
          <mxGeometry x="660" y="660" width="50" height="60" as="geometry" />
        </mxCell>
        <mxCell id="GDfsUicPdsfKHo_18G9Y-26" value="alert admin" style="text;html=1;strokeColor=none;fillColor=none;align=center;verticalAlign=middle;whiteSpace=wrap;rounded=0;" parent="1" vertex="1">
          <mxGeometry x="450" y="650" width="60" height="30" as="geometry" />
        </mxCell>
        <mxCell id="GDfsUicPdsfKHo_18G9Y-32" style="edgeStyle=orthogonalEdgeStyle;rounded=0;orthogonalLoop=1;jettySize=auto;html=1;entryX=0;entryY=0.25;entryDx=0;entryDy=0;" parent="1" source="GDfsUicPdsfKHo_18G9Y-27" target="GDfsUicPdsfKHo_18G9Y-29" edge="1">
          <mxGeometry relative="1" as="geometry">
            <Array as="points">
              <mxPoint x="200" y="764" />
              <mxPoint x="200" y="764" />
            </Array>
          </mxGeometry>
        </mxCell>
        <mxCell id="GDfsUicPdsfKHo_18G9Y-27" value="" style="rounded=0;whiteSpace=wrap;html=1;" parent="1" vertex="1">
          <mxGeometry x="110" y="740" width="40" height="100" as="geometry" />
        </mxCell>
        <mxCell id="GDfsUicPdsfKHo_18G9Y-28" value="" style="endArrow=none;dashed=1;html=1;rounded=0;startArrow=none;" parent="1" source="-ALn_Ugp3yE875ARaoUf-37" target="GDfsUicPdsfKHo_18G9Y-27" edge="1">
          <mxGeometry width="50" height="50" relative="1" as="geometry">
            <mxPoint x="130" y="340" as="sourcePoint" />
            <mxPoint x="130" y="580" as="targetPoint" />
            <Array as="points" />
          </mxGeometry>
        </mxCell>
        <mxCell id="GDfsUicPdsfKHo_18G9Y-31" style="edgeStyle=orthogonalEdgeStyle;rounded=0;orthogonalLoop=1;jettySize=auto;html=1;exitX=0.5;exitY=1;exitDx=0;exitDy=0;" parent="1" source="GDfsUicPdsfKHo_18G9Y-29" target="GDfsUicPdsfKHo_18G9Y-29" edge="1">
          <mxGeometry relative="1" as="geometry" />
        </mxCell>
        <mxCell id="GDfsUicPdsfKHo_18G9Y-35" style="edgeStyle=orthogonalEdgeStyle;rounded=0;orthogonalLoop=1;jettySize=auto;html=1;entryX=1;entryY=0.75;entryDx=0;entryDy=0;" parent="1" source="GDfsUicPdsfKHo_18G9Y-29" target="GDfsUicPdsfKHo_18G9Y-27" edge="1">
          <mxGeometry relative="1" as="geometry">
            <mxPoint x="160" y="820" as="targetPoint" />
            <Array as="points">
              <mxPoint x="190" y="820" />
              <mxPoint x="190" y="815" />
            </Array>
          </mxGeometry>
        </mxCell>
        <mxCell id="GDfsUicPdsfKHo_18G9Y-29" value="" style="rounded=0;whiteSpace=wrap;html=1;" parent="1" vertex="1">
          <mxGeometry x="250" y="735" width="40" height="115" as="geometry" />
        </mxCell>
        <mxCell id="GDfsUicPdsfKHo_18G9Y-33" value="" style="endArrow=none;dashed=1;html=1;rounded=0;" parent="1" target="GDfsUicPdsfKHo_18G9Y-29" edge="1">
          <mxGeometry width="50" height="50" relative="1" as="geometry">
            <mxPoint x="269.40999999999985" y="90.00116210937495" as="sourcePoint" />
            <mxPoint x="270" y="920" as="targetPoint" />
          </mxGeometry>
        </mxCell>
        <mxCell id="GDfsUicPdsfKHo_18G9Y-34" value="payment&lt;br&gt;declined" style="text;html=1;strokeColor=none;fillColor=none;align=center;verticalAlign=middle;whiteSpace=wrap;rounded=0;" parent="1" vertex="1">
          <mxGeometry x="160" y="730" width="60" height="30" as="geometry" />
        </mxCell>
        <mxCell id="GDfsUicPdsfKHo_18G9Y-38" value="retry" style="text;html=1;strokeColor=none;fillColor=none;align=center;verticalAlign=middle;whiteSpace=wrap;rounded=0;" parent="1" vertex="1">
          <mxGeometry x="170" y="777.5" width="60" height="30" as="geometry" />
        </mxCell>
        <mxCell id="m_59W1ofEceELkHwI7DO-1" value="Avatar" style="rounded=0;whiteSpace=wrap;html=1;" parent="1" vertex="1">
          <mxGeometry x="730" y="30" width="120" height="60" as="geometry" />
        </mxCell>
        <mxCell id="m_59W1ofEceELkHwI7DO-3" value="" style="endArrow=none;dashed=1;html=1;rounded=0;entryX=0.607;entryY=1.043;entryDx=0;entryDy=0;entryPerimeter=0;" parent="1" target="m_59W1ofEceELkHwI7DO-1" edge="1">
          <mxGeometry width="50" height="50" relative="1" as="geometry">
            <mxPoint x="800" y="920" as="sourcePoint" />
            <mxPoint x="820" y="80" as="targetPoint" />
          </mxGeometry>
        </mxCell>
        <mxCell id="m_59W1ofEceELkHwI7DO-7" style="edgeStyle=orthogonalEdgeStyle;rounded=0;orthogonalLoop=1;jettySize=auto;html=1;entryX=-0.071;entryY=0.319;entryDx=0;entryDy=0;entryPerimeter=0;" parent="1" target="m_59W1ofEceELkHwI7DO-6" edge="1">
          <mxGeometry relative="1" as="geometry">
            <mxPoint x="155" y="903" as="sourcePoint" />
            <Array as="points">
              <mxPoint x="155" y="902" />
            </Array>
          </mxGeometry>
        </mxCell>
        <mxCell id="m_59W1ofEceELkHwI7DO-5" value="" style="endArrow=none;dashed=1;html=1;rounded=0;startArrow=none;" parent="1" source="m_59W1ofEceELkHwI7DO-11" edge="1">
          <mxGeometry width="50" height="50" relative="1" as="geometry">
            <mxPoint x="130" y="820" as="sourcePoint" />
            <mxPoint x="130" y="990" as="targetPoint" />
            <Array as="points">
              <mxPoint x="130" y="930" />
            </Array>
          </mxGeometry>
        </mxCell>
        <mxCell id="m_59W1ofEceELkHwI7DO-12" style="edgeStyle=orthogonalEdgeStyle;rounded=0;orthogonalLoop=1;jettySize=auto;html=1;" parent="1" source="m_59W1ofEceELkHwI7DO-6" target="m_59W1ofEceELkHwI7DO-11" edge="1">
          <mxGeometry relative="1" as="geometry">
            <Array as="points">
              <mxPoint x="470" y="950" />
              <mxPoint x="470" y="950" />
            </Array>
          </mxGeometry>
        </mxCell>
        <mxCell id="m_59W1ofEceELkHwI7DO-6" value="" style="rounded=0;whiteSpace=wrap;html=1;" parent="1" vertex="1">
          <mxGeometry x="780" y="860" width="50" height="130" as="geometry" />
        </mxCell>
        <mxCell id="m_59W1ofEceELkHwI7DO-8" value="Avatar Creation/Selection" style="text;html=1;strokeColor=none;fillColor=none;align=center;verticalAlign=middle;whiteSpace=wrap;rounded=0;" parent="1" vertex="1">
          <mxGeometry x="450" y="860" width="60" height="30" as="geometry" />
        </mxCell>
        <mxCell id="m_59W1ofEceELkHwI7DO-13" value="created avatar" style="text;html=1;strokeColor=none;fillColor=none;align=center;verticalAlign=middle;whiteSpace=wrap;rounded=0;" parent="1" vertex="1">
          <mxGeometry x="450" y="910" width="60" height="30" as="geometry" />
        </mxCell>
        <mxCell id="m_59W1ofEceELkHwI7DO-11" value="" style="rounded=0;whiteSpace=wrap;html=1;" parent="1" vertex="1">
          <mxGeometry x="110" y="880" width="40" height="110" as="geometry" />
        </mxCell>
        <mxCell id="m_59W1ofEceELkHwI7DO-14" value="" style="endArrow=none;dashed=1;html=1;rounded=0;startArrow=none;" parent="1" source="GDfsUicPdsfKHo_18G9Y-27" target="m_59W1ofEceELkHwI7DO-11" edge="1">
          <mxGeometry width="50" height="50" relative="1" as="geometry">
            <mxPoint x="130" y="820" as="sourcePoint" />
            <mxPoint x="130" y="990" as="targetPoint" />
            <Array as="points" />
          </mxGeometry>
        </mxCell>
        <mxCell id="m_59W1ofEceELkHwI7DO-15" value="" style="endArrow=none;dashed=1;html=1;rounded=0;" parent="1" edge="1">
          <mxGeometry width="50" height="50" relative="1" as="geometry">
            <mxPoint x="130" y="1150" as="sourcePoint" />
            <mxPoint x="130" y="990" as="targetPoint" />
            <Array as="points" />
          </mxGeometry>
        </mxCell>
        <mxCell id="m_59W1ofEceELkHwI7DO-16" value="" style="endArrow=none;dashed=1;html=1;rounded=0;entryX=0.5;entryY=1;entryDx=0;entryDy=0;" parent="1" target="m_59W1ofEceELkHwI7DO-6" edge="1">
          <mxGeometry width="50" height="50" relative="1" as="geometry">
            <mxPoint x="805" y="1155.3333875868057" as="sourcePoint" />
            <mxPoint x="820" y="1000" as="targetPoint" />
          </mxGeometry>
        </mxCell>
        <mxCell id="m_59W1ofEceELkHwI7DO-19" style="edgeStyle=orthogonalEdgeStyle;rounded=0;orthogonalLoop=1;jettySize=auto;html=1;entryX=0;entryY=0.5;entryDx=0;entryDy=0;" parent="1" source="m_59W1ofEceELkHwI7DO-17" target="m_59W1ofEceELkHwI7DO-18" edge="1">
          <mxGeometry relative="1" as="geometry" />
        </mxCell>
        <mxCell id="m_59W1ofEceELkHwI7DO-17" value="" style="rounded=0;whiteSpace=wrap;html=1;" parent="1" vertex="1">
          <mxGeometry x="110" y="1020" width="40" height="110" as="geometry" />
        </mxCell>
        <mxCell id="m_59W1ofEceELkHwI7DO-20" style="edgeStyle=orthogonalEdgeStyle;rounded=0;orthogonalLoop=1;jettySize=auto;html=1;entryX=1.067;entryY=0.829;entryDx=0;entryDy=0;entryPerimeter=0;" parent="1" source="m_59W1ofEceELkHwI7DO-18" target="m_59W1ofEceELkHwI7DO-17" edge="1">
          <mxGeometry relative="1" as="geometry">
            <Array as="points">
              <mxPoint x="630" y="1111" />
              <mxPoint x="630" y="1111" />
            </Array>
          </mxGeometry>
        </mxCell>
        <mxCell id="m_59W1ofEceELkHwI7DO-18" value="" style="rounded=0;whiteSpace=wrap;html=1;" parent="1" vertex="1">
          <mxGeometry x="780" y="1020" width="50" height="110" as="geometry" />
        </mxCell>
        <mxCell id="m_59W1ofEceELkHwI7DO-22" value="Manage Avatar" style="text;html=1;resizable=0;autosize=1;align=center;verticalAlign=middle;points=[];fillColor=none;strokeColor=none;rounded=0;" parent="1" vertex="1">
          <mxGeometry x="420" y="1025" width="100" height="30" as="geometry" />
        </mxCell>
        <mxCell id="m_59W1ofEceELkHwI7DO-23" value="Edited Avatar" style="text;html=1;strokeColor=none;fillColor=none;align=center;verticalAlign=middle;whiteSpace=wrap;rounded=0;" parent="1" vertex="1">
          <mxGeometry x="440" y="1080" width="60" height="30" as="geometry" />
        </mxCell>
        <mxCell id="m_59W1ofEceELkHwI7DO-26" style="edgeStyle=orthogonalEdgeStyle;rounded=0;orthogonalLoop=1;jettySize=auto;html=1;entryX=1;entryY=0.5;entryDx=0;entryDy=0;" parent="1" source="m_59W1ofEceELkHwI7DO-24" target="m_59W1ofEceELkHwI7DO-25" edge="1">
          <mxGeometry relative="1" as="geometry" />
        </mxCell>
        <mxCell id="m_59W1ofEceELkHwI7DO-24" value="" style="rounded=0;whiteSpace=wrap;html=1;" parent="1" vertex="1">
          <mxGeometry x="670" y="370" width="40" height="20" as="geometry" />
        </mxCell>
        <mxCell id="m_59W1ofEceELkHwI7DO-25" value="" style="rounded=0;whiteSpace=wrap;html=1;" parent="1" vertex="1">
          <mxGeometry x="110" y="370" width="40" height="20" as="geometry" />
        </mxCell>
        <mxCell id="m_59W1ofEceELkHwI7DO-27" value="Manage user" style="text;html=1;strokeColor=none;fillColor=none;align=center;verticalAlign=middle;whiteSpace=wrap;rounded=0;" parent="1" vertex="1">
          <mxGeometry x="310" y="340" width="60" height="30" as="geometry" />
        </mxCell>
      </root>
    </mxGraphModel>
  </diagram>
  <diagram id="t_Bhrj4wqYGoihLJrzjC" name="Page-2">
    <mxGraphModel dx="2062" dy="1065" grid="1" gridSize="10" guides="1" tooltips="1" connect="1" arrows="1" fold="1" page="1" pageScale="1" pageWidth="827" pageHeight="1169" math="0" shadow="0">
      <root>
        <mxCell id="0" />
        <mxCell id="1" parent="0" />
      </root>
    </mxGraphModel>
  </diagram>
  <diagram name="Page-1" id="qGDFFn8n13Z1FPzNFwcg">
    <mxGraphModel dx="1018" dy="923" grid="1" gridSize="10" guides="1" tooltips="1" connect="1" arrows="1" fold="1" page="1" pageScale="1" pageWidth="850" pageHeight="1100" math="0" shadow="0">
      <root>
        <mxCell id="0" />
        <mxCell id="1" parent="0" />
        <mxCell id="AcjxeWPcck09HLh02bn3-1" value="Customer" style="whiteSpace=wrap;html=1;aspect=fixed;" parent="1" vertex="1">
          <mxGeometry x="30" y="310" width="80" height="80" as="geometry" />
        </mxCell>
        <mxCell id="AcjxeWPcck09HLh02bn3-2" value="Host/Admin" style="whiteSpace=wrap;html=1;aspect=fixed;" parent="1" vertex="1">
          <mxGeometry x="740" y="310" width="80" height="80" as="geometry" />
        </mxCell>
        <mxCell id="AcjxeWPcck09HLh02bn3-3" value="1.0" style="swimlane;" parent="1" vertex="1">
          <mxGeometry x="300" y="60" width="150" height="110" as="geometry" />
        </mxCell>
        <mxCell id="AcjxeWPcck09HLh02bn3-7" value="Manage&amp;nbsp;&lt;br&gt;Customer&amp;nbsp;&lt;br&gt;Information&lt;br&gt;" style="text;html=1;align=center;verticalAlign=middle;resizable=0;points=[];autosize=1;strokeColor=none;fillColor=none;" parent="AcjxeWPcck09HLh02bn3-3" vertex="1">
          <mxGeometry x="35" y="30" width="80" height="60" as="geometry" />
        </mxCell>
        <mxCell id="AcjxeWPcck09HLh02bn3-15" value="2.0" style="swimlane;" parent="1" vertex="1">
          <mxGeometry x="300" y="280" width="150" height="140" as="geometry" />
        </mxCell>
        <mxCell id="AcjxeWPcck09HLh02bn3-16" value="Manage&amp;nbsp;&lt;br&gt;Product&amp;nbsp;&lt;br&gt;Information" style="text;html=1;align=center;verticalAlign=middle;resizable=0;points=[];autosize=1;strokeColor=none;fillColor=none;" parent="AcjxeWPcck09HLh02bn3-15" vertex="1">
          <mxGeometry x="35" y="40" width="80" height="60" as="geometry" />
        </mxCell>
        <mxCell id="AcjxeWPcck09HLh02bn3-30" value="" style="endArrow=classic;html=1;rounded=0;" parent="1" edge="1">
          <mxGeometry relative="1" as="geometry">
            <mxPoint x="70" y="310" as="sourcePoint" />
            <mxPoint x="300" y="120" as="targetPoint" />
            <Array as="points">
              <mxPoint x="70" y="120" />
              <mxPoint x="130" y="120" />
              <mxPoint x="220" y="120" />
            </Array>
          </mxGeometry>
        </mxCell>
        <mxCell id="AcjxeWPcck09HLh02bn3-31" value="login info" style="edgeLabel;resizable=0;html=1;align=center;verticalAlign=middle;" parent="AcjxeWPcck09HLh02bn3-30" connectable="0" vertex="1">
          <mxGeometry relative="1" as="geometry">
            <mxPoint x="116" as="offset" />
          </mxGeometry>
        </mxCell>
        <mxCell id="AcjxeWPcck09HLh02bn3-34" value="" style="endArrow=classic;html=1;rounded=0;exitX=0.5;exitY=0;exitDx=0;exitDy=0;" parent="1" source="AcjxeWPcck09HLh02bn3-1" edge="1">
          <mxGeometry relative="1" as="geometry">
            <mxPoint x="60" y="310" as="sourcePoint" />
            <mxPoint x="300" y="150" as="targetPoint" />
            <Array as="points">
              <mxPoint x="70" y="150" />
            </Array>
          </mxGeometry>
        </mxCell>
        <mxCell id="AcjxeWPcck09HLh02bn3-35" value="Order Details" style="edgeLabel;resizable=0;html=1;align=center;verticalAlign=middle;" parent="AcjxeWPcck09HLh02bn3-34" connectable="0" vertex="1">
          <mxGeometry relative="1" as="geometry">
            <mxPoint x="75" as="offset" />
          </mxGeometry>
        </mxCell>
        <mxCell id="AcjxeWPcck09HLh02bn3-38" value="" style="endArrow=classic;html=1;rounded=0;entryX=0.25;entryY=0;entryDx=0;entryDy=0;" parent="1" target="AcjxeWPcck09HLh02bn3-15" edge="1">
          <mxGeometry relative="1" as="geometry">
            <mxPoint x="70" y="310" as="sourcePoint" />
            <mxPoint x="230" y="310" as="targetPoint" />
            <Array as="points">
              <mxPoint x="70" y="190" />
              <mxPoint x="338" y="190" />
            </Array>
          </mxGeometry>
        </mxCell>
        <mxCell id="AcjxeWPcck09HLh02bn3-39" value="order" style="edgeLabel;resizable=0;html=1;align=center;verticalAlign=middle;" parent="AcjxeWPcck09HLh02bn3-38" connectable="0" vertex="1">
          <mxGeometry relative="1" as="geometry" />
        </mxCell>
        <mxCell id="AcjxeWPcck09HLh02bn3-44" value="" style="endArrow=classic;html=1;rounded=0;entryX=0.5;entryY=0;entryDx=0;entryDy=0;exitX=1;exitY=0.5;exitDx=0;exitDy=0;" parent="1" source="AcjxeWPcck09HLh02bn3-3" target="AcjxeWPcck09HLh02bn3-2" edge="1">
          <mxGeometry relative="1" as="geometry">
            <mxPoint x="770" y="310" as="sourcePoint" />
            <mxPoint x="930" y="310" as="targetPoint" />
            <Array as="points">
              <mxPoint x="780" y="115" />
              <mxPoint x="780" y="200" />
            </Array>
          </mxGeometry>
        </mxCell>
        <mxCell id="AcjxeWPcck09HLh02bn3-45" value="Order Detalis" style="edgeLabel;resizable=0;html=1;align=center;verticalAlign=middle;" parent="AcjxeWPcck09HLh02bn3-44" connectable="0" vertex="1">
          <mxGeometry relative="1" as="geometry">
            <mxPoint x="5" as="offset" />
          </mxGeometry>
        </mxCell>
        <mxCell id="AcjxeWPcck09HLh02bn3-48" value="" style="endArrow=classic;html=1;rounded=0;entryX=0.653;entryY=-0.007;entryDx=0;entryDy=0;entryPerimeter=0;" parent="1" target="AcjxeWPcck09HLh02bn3-15" edge="1">
          <mxGeometry relative="1" as="geometry">
            <mxPoint x="770" y="310" as="sourcePoint" />
            <mxPoint x="930" y="310" as="targetPoint" />
            <Array as="points">
              <mxPoint x="770" y="190" />
              <mxPoint x="397" y="190" />
            </Array>
          </mxGeometry>
        </mxCell>
        <mxCell id="AcjxeWPcck09HLh02bn3-49" value="Item List" style="edgeLabel;resizable=0;html=1;align=center;verticalAlign=middle;" parent="AcjxeWPcck09HLh02bn3-48" connectable="0" vertex="1">
          <mxGeometry relative="1" as="geometry">
            <mxPoint x="19" as="offset" />
          </mxGeometry>
        </mxCell>
        <mxCell id="AcjxeWPcck09HLh02bn3-54" value="" style="endArrow=classic;html=1;rounded=0;entryX=1;entryY=0.5;entryDx=0;entryDy=0;exitX=0;exitY=0.5;exitDx=0;exitDy=0;" parent="1" source="AcjxeWPcck09HLh02bn3-15" target="AcjxeWPcck09HLh02bn3-1" edge="1">
          <mxGeometry relative="1" as="geometry">
            <mxPoint x="280" y="350" as="sourcePoint" />
            <mxPoint x="440" y="350" as="targetPoint" />
          </mxGeometry>
        </mxCell>
        <mxCell id="AcjxeWPcck09HLh02bn3-55" value="Order Conformation" style="edgeLabel;resizable=0;html=1;align=center;verticalAlign=middle;" parent="AcjxeWPcck09HLh02bn3-54" connectable="0" vertex="1">
          <mxGeometry relative="1" as="geometry" />
        </mxCell>
        <mxCell id="AcjxeWPcck09HLh02bn3-58" value="3.0" style="swimlane;" parent="1" vertex="1">
          <mxGeometry x="300" y="460" width="150" height="150" as="geometry" />
        </mxCell>
        <mxCell id="AcjxeWPcck09HLh02bn3-63" value="Manage&amp;nbsp;&lt;br&gt;Product&amp;nbsp;&lt;br&gt;Price" style="text;html=1;align=center;verticalAlign=middle;resizable=0;points=[];autosize=1;strokeColor=none;fillColor=none;" parent="AcjxeWPcck09HLh02bn3-58" vertex="1">
          <mxGeometry x="40" y="45" width="70" height="60" as="geometry" />
        </mxCell>
        <mxCell id="AcjxeWPcck09HLh02bn3-59" value="" style="endArrow=classic;html=1;rounded=0;" parent="1" edge="1">
          <mxGeometry relative="1" as="geometry">
            <mxPoint x="780" y="390" as="sourcePoint" />
            <mxPoint x="450" y="500" as="targetPoint" />
            <Array as="points">
              <mxPoint x="780" y="500" />
            </Array>
          </mxGeometry>
        </mxCell>
        <mxCell id="AcjxeWPcck09HLh02bn3-60" value="Item Price" style="edgeLabel;resizable=0;html=1;align=center;verticalAlign=middle;" parent="AcjxeWPcck09HLh02bn3-59" connectable="0" vertex="1">
          <mxGeometry relative="1" as="geometry">
            <mxPoint x="-45" as="offset" />
          </mxGeometry>
        </mxCell>
        <mxCell id="AcjxeWPcck09HLh02bn3-64" value="" style="endArrow=classic;html=1;rounded=0;exitX=0.5;exitY=1;exitDx=0;exitDy=0;" parent="1" source="AcjxeWPcck09HLh02bn3-1" edge="1">
          <mxGeometry relative="1" as="geometry">
            <mxPoint x="70" y="520" as="sourcePoint" />
            <mxPoint x="300" y="540" as="targetPoint" />
            <Array as="points">
              <mxPoint x="70" y="540" />
            </Array>
          </mxGeometry>
        </mxCell>
        <mxCell id="AcjxeWPcck09HLh02bn3-65" value="Make Payment" style="edgeLabel;resizable=0;html=1;align=center;verticalAlign=middle;" parent="AcjxeWPcck09HLh02bn3-64" connectable="0" vertex="1">
          <mxGeometry relative="1" as="geometry">
            <mxPoint x="60" as="offset" />
          </mxGeometry>
        </mxCell>
        <mxCell id="AcjxeWPcck09HLh02bn3-68" value="4.0" style="swimlane;" parent="1" vertex="1">
          <mxGeometry x="300" y="650" width="160" height="150" as="geometry" />
        </mxCell>
        <mxCell id="AcjxeWPcck09HLh02bn3-73" value="Payment&amp;nbsp;&lt;br&gt;Conformation" style="text;html=1;align=center;verticalAlign=middle;resizable=0;points=[];autosize=1;strokeColor=none;fillColor=none;" parent="AcjxeWPcck09HLh02bn3-68" vertex="1">
          <mxGeometry x="30" y="55" width="100" height="40" as="geometry" />
        </mxCell>
        <mxCell id="AcjxeWPcck09HLh02bn3-74" value="" style="endArrow=classic;html=1;rounded=0;entryX=0.75;entryY=1;entryDx=0;entryDy=0;" parent="1" target="AcjxeWPcck09HLh02bn3-1" edge="1">
          <mxGeometry relative="1" as="geometry">
            <mxPoint x="300" y="740" as="sourcePoint" />
            <mxPoint x="300" y="730" as="targetPoint" />
            <Array as="points">
              <mxPoint x="90" y="740" />
            </Array>
          </mxGeometry>
        </mxCell>
        <mxCell id="AcjxeWPcck09HLh02bn3-75" value="Payment&lt;br&gt;Receipt" style="edgeLabel;resizable=0;html=1;align=center;verticalAlign=middle;" parent="AcjxeWPcck09HLh02bn3-74" connectable="0" vertex="1">
          <mxGeometry relative="1" as="geometry">
            <mxPoint x="90" y="70" as="offset" />
          </mxGeometry>
        </mxCell>
        <mxCell id="M_kqj-NbFxK8Mggbaway-1" value="" style="endArrow=classic;html=1;rounded=0;entryX=0.75;entryY=1;entryDx=0;entryDy=0;" parent="1" target="AcjxeWPcck09HLh02bn3-2" edge="1">
          <mxGeometry relative="1" as="geometry">
            <mxPoint x="460" y="740" as="sourcePoint" />
            <mxPoint x="620" y="740" as="targetPoint" />
            <Array as="points">
              <mxPoint x="800" y="740" />
            </Array>
          </mxGeometry>
        </mxCell>
        <mxCell id="M_kqj-NbFxK8Mggbaway-2" value="Alert" style="edgeLabel;resizable=0;html=1;align=center;verticalAlign=middle;" parent="M_kqj-NbFxK8Mggbaway-1" connectable="0" vertex="1">
          <mxGeometry relative="1" as="geometry">
            <mxPoint x="-140" y="5" as="offset" />
          </mxGeometry>
        </mxCell>
        <mxCell id="M_kqj-NbFxK8Mggbaway-13" value="" style="endArrow=classic;html=1;rounded=0;entryX=1;entryY=0.25;entryDx=0;entryDy=0;" parent="1" target="AcjxeWPcck09HLh02bn3-3" edge="1">
          <mxGeometry relative="1" as="geometry">
            <mxPoint x="800" y="310" as="sourcePoint" />
            <mxPoint x="800" y="70" as="targetPoint" />
            <Array as="points">
              <mxPoint x="800" y="88" />
            </Array>
          </mxGeometry>
        </mxCell>
        <mxCell id="M_kqj-NbFxK8Mggbaway-14" value="manage user" style="edgeLabel;resizable=0;html=1;align=center;verticalAlign=middle;" parent="M_kqj-NbFxK8Mggbaway-13" connectable="0" vertex="1">
          <mxGeometry relative="1" as="geometry" />
        </mxCell>
        <mxCell id="Q8XqTLwp39m8KdyYw-Mc-1" value="" style="endArrow=classic;html=1;rounded=0;entryX=0;entryY=0.25;entryDx=0;entryDy=0;" parent="1" target="AcjxeWPcck09HLh02bn3-3" edge="1">
          <mxGeometry relative="1" as="geometry">
            <mxPoint x="70" y="310" as="sourcePoint" />
            <mxPoint x="230" y="310" as="targetPoint" />
            <Array as="points">
              <mxPoint x="70" y="90" />
              <mxPoint x="120" y="90" />
            </Array>
          </mxGeometry>
        </mxCell>
        <mxCell id="Q8XqTLwp39m8KdyYw-Mc-2" value="Avatar" style="edgeLabel;resizable=0;html=1;align=center;verticalAlign=middle;" parent="Q8XqTLwp39m8KdyYw-Mc-1" connectable="0" vertex="1">
          <mxGeometry relative="1" as="geometry">
            <mxPoint x="120" y="-6" as="offset" />
          </mxGeometry>
        </mxCell>
      </root>
    </mxGraphModel>
  </diagram>
  <diagram name="Page-2" id="hUtCuv5ycMAXmpaf4dHf">
    <mxGraphModel dx="698" dy="633" grid="1" gridSize="10" guides="1" tooltips="1" connect="1" arrows="1" fold="1" page="1" pageScale="1" pageWidth="850" pageHeight="1100" math="0" shadow="0">
      <root>
        <mxCell id="0" />
        <mxCell id="1" parent="0" />
        <mxCell id="95le3fzSgRm6yK3gZx0j-1" value="Host/Admin" style="rounded=0;whiteSpace=wrap;html=1;" parent="1" vertex="1">
          <mxGeometry x="670" y="160" width="120" height="60" as="geometry" />
        </mxCell>
        <mxCell id="95le3fzSgRm6yK3gZx0j-2" value="User" style="rounded=0;whiteSpace=wrap;html=1;" parent="1" vertex="1">
          <mxGeometry x="30" y="160" width="120" height="60" as="geometry" />
        </mxCell>
        <mxCell id="95le3fzSgRm6yK3gZx0j-4" value="0.0" style="swimlane;" parent="1" vertex="1">
          <mxGeometry x="320" y="30" width="200" height="200" as="geometry" />
        </mxCell>
        <mxCell id="95le3fzSgRm6yK3gZx0j-5" value="Website" style="text;html=1;align=center;verticalAlign=middle;resizable=0;points=[];autosize=1;strokeColor=none;fillColor=none;" parent="95le3fzSgRm6yK3gZx0j-4" vertex="1">
          <mxGeometry x="65" y="110" width="70" height="30" as="geometry" />
        </mxCell>
        <mxCell id="95le3fzSgRm6yK3gZx0j-6" value="" style="endArrow=classic;html=1;rounded=0;" parent="1" edge="1">
          <mxGeometry relative="1" as="geometry">
            <mxPoint x="150" y="190" as="sourcePoint" />
            <mxPoint x="320" y="190" as="targetPoint" />
          </mxGeometry>
        </mxCell>
        <mxCell id="95le3fzSgRm6yK3gZx0j-7" value="Product Selection" style="edgeLabel;resizable=0;html=1;align=center;verticalAlign=middle;" parent="95le3fzSgRm6yK3gZx0j-6" connectable="0" vertex="1">
          <mxGeometry relative="1" as="geometry" />
        </mxCell>
        <mxCell id="95le3fzSgRm6yK3gZx0j-12" value="" style="endArrow=classic;html=1;rounded=0;exitX=0;exitY=0.25;exitDx=0;exitDy=0;" parent="1" source="95le3fzSgRm6yK3gZx0j-1" edge="1">
          <mxGeometry relative="1" as="geometry">
            <mxPoint x="550" y="290" as="sourcePoint" />
            <mxPoint x="520" y="175" as="targetPoint" />
            <Array as="points" />
          </mxGeometry>
        </mxCell>
        <mxCell id="95le3fzSgRm6yK3gZx0j-13" value="product listing" style="edgeLabel;resizable=0;html=1;align=center;verticalAlign=middle;" parent="95le3fzSgRm6yK3gZx0j-12" connectable="0" vertex="1">
          <mxGeometry relative="1" as="geometry" />
        </mxCell>
        <mxCell id="95le3fzSgRm6yK3gZx0j-15" value="" style="endArrow=classic;html=1;rounded=0;exitX=0.5;exitY=0;exitDx=0;exitDy=0;" parent="1" source="95le3fzSgRm6yK3gZx0j-2" edge="1">
          <mxGeometry relative="1" as="geometry">
            <mxPoint x="100" y="90" as="sourcePoint" />
            <mxPoint x="320" y="160" as="targetPoint" />
          </mxGeometry>
        </mxCell>
        <mxCell id="95le3fzSgRm6yK3gZx0j-16" value="login info" style="edgeLabel;resizable=0;html=1;align=center;verticalAlign=middle;" parent="95le3fzSgRm6yK3gZx0j-15" connectable="0" vertex="1">
          <mxGeometry relative="1" as="geometry" />
        </mxCell>
        <mxCell id="95le3fzSgRm6yK3gZx0j-19" value="" style="endArrow=classic;html=1;rounded=0;exitX=0.5;exitY=0;exitDx=0;exitDy=0;" parent="1" source="95le3fzSgRm6yK3gZx0j-1" edge="1">
          <mxGeometry relative="1" as="geometry">
            <mxPoint x="650" y="110" as="sourcePoint" />
            <mxPoint x="520" y="110" as="targetPoint" />
            <Array as="points">
              <mxPoint x="730" y="110" />
            </Array>
          </mxGeometry>
        </mxCell>
        <mxCell id="95le3fzSgRm6yK3gZx0j-20" value="price Details" style="edgeLabel;resizable=0;html=1;align=center;verticalAlign=middle;" parent="95le3fzSgRm6yK3gZx0j-19" connectable="0" vertex="1">
          <mxGeometry relative="1" as="geometry" />
        </mxCell>
        <mxCell id="95le3fzSgRm6yK3gZx0j-23" value="" style="endArrow=classic;html=1;rounded=0;entryX=0.353;entryY=-0.017;entryDx=0;entryDy=0;entryPerimeter=0;exitX=0;exitY=0.25;exitDx=0;exitDy=0;" parent="1" source="95le3fzSgRm6yK3gZx0j-4" target="95le3fzSgRm6yK3gZx0j-2" edge="1">
          <mxGeometry relative="1" as="geometry">
            <mxPoint x="320" y="70" as="sourcePoint" />
            <mxPoint x="230" y="110" as="targetPoint" />
            <Array as="points">
              <mxPoint x="72" y="80" />
            </Array>
          </mxGeometry>
        </mxCell>
        <mxCell id="95le3fzSgRm6yK3gZx0j-24" value="Price Details" style="edgeLabel;resizable=0;html=1;align=center;verticalAlign=middle;" parent="95le3fzSgRm6yK3gZx0j-23" connectable="0" vertex="1">
          <mxGeometry relative="1" as="geometry" />
        </mxCell>
        <mxCell id="95le3fzSgRm6yK3gZx0j-27" value="" style="endArrow=classic;html=1;rounded=0;exitX=0.5;exitY=0;exitDx=0;exitDy=0;entryX=0;entryY=0.5;entryDx=0;entryDy=0;" parent="1" source="95le3fzSgRm6yK3gZx0j-2" target="95le3fzSgRm6yK3gZx0j-4" edge="1">
          <mxGeometry relative="1" as="geometry">
            <mxPoint x="130" y="120" as="sourcePoint" />
            <mxPoint x="290" y="120" as="targetPoint" />
            <Array as="points">
              <mxPoint x="90" y="130" />
            </Array>
          </mxGeometry>
        </mxCell>
        <mxCell id="95le3fzSgRm6yK3gZx0j-28" value="Avatar info" style="edgeLabel;resizable=0;html=1;align=center;verticalAlign=middle;" parent="95le3fzSgRm6yK3gZx0j-27" connectable="0" vertex="1">
          <mxGeometry relative="1" as="geometry" />
        </mxCell>
        <mxCell id="95le3fzSgRm6yK3gZx0j-31" value="" style="endArrow=classic;html=1;rounded=0;entryX=1;entryY=0.5;entryDx=0;entryDy=0;" parent="1" target="95le3fzSgRm6yK3gZx0j-4" edge="1">
          <mxGeometry relative="1" as="geometry">
            <mxPoint x="690" y="160" as="sourcePoint" />
            <mxPoint x="850" y="160" as="targetPoint" />
            <Array as="points">
              <mxPoint x="690" y="130" />
            </Array>
          </mxGeometry>
        </mxCell>
        <mxCell id="95le3fzSgRm6yK3gZx0j-32" value="Manage User" style="edgeLabel;resizable=0;html=1;align=center;verticalAlign=middle;" parent="95le3fzSgRm6yK3gZx0j-31" connectable="0" vertex="1">
          <mxGeometry relative="1" as="geometry" />
        </mxCell>
        <mxCell id="95le3fzSgRm6yK3gZx0j-35" value="" style="endArrow=classic;html=1;rounded=0;entryX=0.5;entryY=1;entryDx=0;entryDy=0;" parent="1" target="95le3fzSgRm6yK3gZx0j-1" edge="1">
          <mxGeometry relative="1" as="geometry">
            <mxPoint x="480" y="230" as="sourcePoint" />
            <mxPoint x="730" y="230" as="targetPoint" />
            <Array as="points">
              <mxPoint x="480" y="290" />
              <mxPoint x="730" y="290" />
            </Array>
          </mxGeometry>
        </mxCell>
        <mxCell id="95le3fzSgRm6yK3gZx0j-36" value="Purchase Alert" style="edgeLabel;resizable=0;html=1;align=center;verticalAlign=middle;" parent="95le3fzSgRm6yK3gZx0j-35" connectable="0" vertex="1">
          <mxGeometry relative="1" as="geometry" />
        </mxCell>
      </root>
    </mxGraphModel>
  </diagram>
  <diagram name="Page-3" id="Sb-vRqijIzMgrtkCR6oz">
    <mxGraphModel dx="843" dy="764" grid="1" gridSize="10" guides="1" tooltips="1" connect="1" arrows="1" fold="1" page="1" pageScale="1" pageWidth="827" pageHeight="1169" math="0" shadow="0">
      <root>
        <mxCell id="0" />
        <mxCell id="1" parent="0" />
        <mxCell id="UryQyH_QJODlCXosFNpq-1" value="Customer" style="rounded=0;whiteSpace=wrap;html=1;" vertex="1" parent="1">
          <mxGeometry x="50" y="350" width="140" height="50" as="geometry" />
        </mxCell>
        <mxCell id="UryQyH_QJODlCXosFNpq-2" value="2.0" style="swimlane;" vertex="1" parent="1">
          <mxGeometry x="610" y="70" width="140" height="90" as="geometry" />
        </mxCell>
        <mxCell id="UryQyH_QJODlCXosFNpq-3" value="Manage Product&lt;br&gt;Information" style="text;html=1;align=center;verticalAlign=middle;resizable=0;points=[];autosize=1;strokeColor=none;fillColor=none;" vertex="1" parent="UryQyH_QJODlCXosFNpq-2">
          <mxGeometry x="20" y="50" width="110" height="40" as="geometry" />
        </mxCell>
        <mxCell id="F5Od4bGAPrUn6ZOEfaB5-1" value="1.0" style="swimlane;" vertex="1" parent="1">
          <mxGeometry x="100" y="50" width="130" height="130" as="geometry" />
        </mxCell>
        <mxCell id="F5Od4bGAPrUn6ZOEfaB5-2" value="Manage&lt;br&gt;Customer&lt;br&gt;Information" style="text;html=1;align=center;verticalAlign=middle;resizable=0;points=[];autosize=1;strokeColor=none;fillColor=none;" vertex="1" parent="F5Od4bGAPrUn6ZOEfaB5-1">
          <mxGeometry x="25" y="40" width="80" height="60" as="geometry" />
        </mxCell>
        <mxCell id="F5Od4bGAPrUn6ZOEfaB5-3" value="4.0" style="swimlane;" vertex="1" parent="1">
          <mxGeometry x="640" y="500" width="140" height="140" as="geometry" />
        </mxCell>
        <mxCell id="F5Od4bGAPrUn6ZOEfaB5-4" value="Manage Transaction" style="text;html=1;align=center;verticalAlign=middle;resizable=0;points=[];autosize=1;strokeColor=none;fillColor=none;" vertex="1" parent="F5Od4bGAPrUn6ZOEfaB5-3">
          <mxGeometry x="5" y="55" width="130" height="30" as="geometry" />
        </mxCell>
        <mxCell id="F5Od4bGAPrUn6ZOEfaB5-5" value="3.0" style="swimlane;" vertex="1" parent="1">
          <mxGeometry x="105" y="210" width="125" height="120" as="geometry" />
        </mxCell>
        <mxCell id="F5Od4bGAPrUn6ZOEfaB5-7" value="User database" style="rounded=0;whiteSpace=wrap;html=1;" vertex="1" parent="1">
          <mxGeometry x="390" y="20" width="140" height="50" as="geometry" />
        </mxCell>
        <mxCell id="F5Od4bGAPrUn6ZOEfaB5-8" value="Product databse" style="rounded=0;whiteSpace=wrap;html=1;" vertex="1" parent="1">
          <mxGeometry x="385" y="180" width="140" height="50" as="geometry" />
        </mxCell>
        <mxCell id="F5Od4bGAPrUn6ZOEfaB5-9" value="Sales Database" style="rounded=0;whiteSpace=wrap;html=1;" vertex="1" parent="1">
          <mxGeometry x="390" y="370" width="130" height="40" as="geometry" />
        </mxCell>
        <mxCell id="F5Od4bGAPrUn6ZOEfaB5-10" value="Transaction&lt;br&gt;Database" style="rounded=0;whiteSpace=wrap;html=1;" vertex="1" parent="1">
          <mxGeometry x="390" y="510" width="140" height="50" as="geometry" />
        </mxCell>
        <mxCell id="F5Od4bGAPrUn6ZOEfaB5-11" value="Website Admin" style="rounded=0;whiteSpace=wrap;html=1;" vertex="1" parent="1">
          <mxGeometry x="650" y="260" width="140" height="50" as="geometry" />
        </mxCell>
        <mxCell id="F5Od4bGAPrUn6ZOEfaB5-15" value="Avatar" style="text;html=1;align=center;verticalAlign=middle;resizable=0;points=[];autosize=1;strokeColor=none;fillColor=none;" vertex="1" parent="1">
          <mxGeometry x="140" y="265" width="60" height="30" as="geometry" />
        </mxCell>
        <mxCell id="F5Od4bGAPrUn6ZOEfaB5-16" value="" style="endArrow=classic;html=1;rounded=0;exitX=0;exitY=0.5;exitDx=0;exitDy=0;entryX=1;entryY=0.25;entryDx=0;entryDy=0;" edge="1" parent="1" source="F5Od4bGAPrUn6ZOEfaB5-7" target="F5Od4bGAPrUn6ZOEfaB5-1">
          <mxGeometry width="50" height="50" relative="1" as="geometry">
            <mxPoint x="400" y="80" as="sourcePoint" />
            <mxPoint x="450" y="30" as="targetPoint" />
            <Array as="points">
              <mxPoint x="320" y="45" />
              <mxPoint x="320" y="83" />
            </Array>
          </mxGeometry>
        </mxCell>
        <mxCell id="F5Od4bGAPrUn6ZOEfaB5-17" value="" style="endArrow=classic;html=1;rounded=0;entryX=-0.004;entryY=0.154;entryDx=0;entryDy=0;entryPerimeter=0;" edge="1" parent="1" target="F5Od4bGAPrUn6ZOEfaB5-7">
          <mxGeometry width="50" height="50" relative="1" as="geometry">
            <mxPoint x="160" y="50" as="sourcePoint" />
            <mxPoint x="450" y="30" as="targetPoint" />
            <Array as="points">
              <mxPoint x="160" y="28" />
            </Array>
          </mxGeometry>
        </mxCell>
        <mxCell id="F5Od4bGAPrUn6ZOEfaB5-18" value="" style="endArrow=classic;html=1;rounded=0;entryX=1;entryY=0.25;entryDx=0;entryDy=0;exitX=0.902;exitY=-0.052;exitDx=0;exitDy=0;exitPerimeter=0;" edge="1" parent="1" source="F5Od4bGAPrUn6ZOEfaB5-11" target="F5Od4bGAPrUn6ZOEfaB5-7">
          <mxGeometry width="50" height="50" relative="1" as="geometry">
            <mxPoint x="540" y="160" as="sourcePoint" />
            <mxPoint x="580" y="70" as="targetPoint" />
            <Array as="points">
              <mxPoint x="776" y="33" />
            </Array>
          </mxGeometry>
        </mxCell>
        <mxCell id="F5Od4bGAPrUn6ZOEfaB5-20" value="" style="endArrow=classic;html=1;rounded=0;exitX=0.089;exitY=0.986;exitDx=0;exitDy=0;entryX=1;entryY=0.5;entryDx=0;entryDy=0;exitPerimeter=0;" edge="1" parent="1" source="UryQyH_QJODlCXosFNpq-3" target="F5Od4bGAPrUn6ZOEfaB5-8">
          <mxGeometry width="50" height="50" relative="1" as="geometry">
            <mxPoint x="580" y="250" as="sourcePoint" />
            <mxPoint x="630" y="200" as="targetPoint" />
            <Array as="points">
              <mxPoint x="640" y="205" />
            </Array>
          </mxGeometry>
        </mxCell>
        <mxCell id="F5Od4bGAPrUn6ZOEfaB5-21" value="" style="endArrow=classic;html=1;rounded=0;entryX=0;entryY=0.5;entryDx=0;entryDy=0;" edge="1" parent="1" target="F5Od4bGAPrUn6ZOEfaB5-11">
          <mxGeometry width="50" height="50" relative="1" as="geometry">
            <mxPoint x="490" y="370" as="sourcePoint" />
            <mxPoint x="620" y="340" as="targetPoint" />
            <Array as="points">
              <mxPoint x="490" y="285" />
            </Array>
          </mxGeometry>
        </mxCell>
        <mxCell id="F5Od4bGAPrUn6ZOEfaB5-22" value="" style="endArrow=classic;html=1;rounded=0;exitX=0.5;exitY=1;exitDx=0;exitDy=0;entryX=0.75;entryY=0;entryDx=0;entryDy=0;" edge="1" parent="1" source="F5Od4bGAPrUn6ZOEfaB5-11" target="F5Od4bGAPrUn6ZOEfaB5-10">
          <mxGeometry width="50" height="50" relative="1" as="geometry">
            <mxPoint x="590" y="420" as="sourcePoint" />
            <mxPoint x="640" y="370" as="targetPoint" />
            <Array as="points">
              <mxPoint x="720" y="400" />
              <mxPoint x="600" y="400" />
              <mxPoint x="600" y="480" />
              <mxPoint x="495" y="480" />
            </Array>
          </mxGeometry>
        </mxCell>
        <mxCell id="F5Od4bGAPrUn6ZOEfaB5-23" value="" style="endArrow=classic;html=1;rounded=0;exitX=0;exitY=0.25;exitDx=0;exitDy=0;entryX=1;entryY=0.5;entryDx=0;entryDy=0;" edge="1" parent="1" source="F5Od4bGAPrUn6ZOEfaB5-3" target="F5Od4bGAPrUn6ZOEfaB5-10">
          <mxGeometry width="50" height="50" relative="1" as="geometry">
            <mxPoint x="520" y="300" as="sourcePoint" />
            <mxPoint x="570" y="250" as="targetPoint" />
          </mxGeometry>
        </mxCell>
        <mxCell id="F5Od4bGAPrUn6ZOEfaB5-24" value="" style="endArrow=classic;html=1;rounded=0;exitX=0.5;exitY=1;exitDx=0;exitDy=0;entryX=0.222;entryY=1.023;entryDx=0;entryDy=0;entryPerimeter=0;" edge="1" parent="1" source="F5Od4bGAPrUn6ZOEfaB5-3" target="UryQyH_QJODlCXosFNpq-1">
          <mxGeometry width="50" height="50" relative="1" as="geometry">
            <mxPoint x="700" y="660" as="sourcePoint" />
            <mxPoint x="750" y="610" as="targetPoint" />
            <Array as="points">
              <mxPoint x="710" y="680" />
              <mxPoint x="400" y="680" />
              <mxPoint x="80" y="680" />
            </Array>
          </mxGeometry>
        </mxCell>
        <mxCell id="F5Od4bGAPrUn6ZOEfaB5-26" value="3.0" style="swimlane;" vertex="1" parent="1">
          <mxGeometry x="140" y="455" width="130" height="130" as="geometry" />
        </mxCell>
        <mxCell id="F5Od4bGAPrUn6ZOEfaB5-27" value="Manage&lt;br&gt;Payment&lt;br&gt;Revenue" style="text;html=1;align=center;verticalAlign=middle;resizable=0;points=[];autosize=1;strokeColor=none;fillColor=none;" vertex="1" parent="F5Od4bGAPrUn6ZOEfaB5-26">
          <mxGeometry x="30" y="40" width="70" height="60" as="geometry" />
        </mxCell>
        <mxCell id="F5Od4bGAPrUn6ZOEfaB5-28" value="" style="endArrow=classic;html=1;rounded=0;entryX=0;entryY=0.5;entryDx=0;entryDy=0;" edge="1" parent="1" target="F5Od4bGAPrUn6ZOEfaB5-10">
          <mxGeometry width="50" height="50" relative="1" as="geometry">
            <mxPoint x="270" y="535" as="sourcePoint" />
            <mxPoint x="270" y="535" as="targetPoint" />
          </mxGeometry>
        </mxCell>
        <mxCell id="F5Od4bGAPrUn6ZOEfaB5-29" value="" style="endArrow=classic;html=1;rounded=0;exitX=0;exitY=0.5;exitDx=0;exitDy=0;entryX=1;entryY=0;entryDx=0;entryDy=0;" edge="1" parent="1" source="F5Od4bGAPrUn6ZOEfaB5-9" target="F5Od4bGAPrUn6ZOEfaB5-26">
          <mxGeometry width="50" height="50" relative="1" as="geometry">
            <mxPoint x="330" y="350" as="sourcePoint" />
            <mxPoint x="380" y="300" as="targetPoint" />
            <Array as="points">
              <mxPoint x="270" y="390" />
            </Array>
          </mxGeometry>
        </mxCell>
        <mxCell id="F5Od4bGAPrUn6ZOEfaB5-30" value="" style="endArrow=classic;html=1;rounded=0;exitX=0.5;exitY=1;exitDx=0;exitDy=0;entryX=0.5;entryY=0;entryDx=0;entryDy=0;" edge="1" parent="1" source="UryQyH_QJODlCXosFNpq-1" target="F5Od4bGAPrUn6ZOEfaB5-26">
          <mxGeometry width="50" height="50" relative="1" as="geometry">
            <mxPoint x="240" y="350" as="sourcePoint" />
            <mxPoint x="290" y="300" as="targetPoint" />
            <Array as="points">
              <mxPoint x="120" y="430" />
              <mxPoint x="205" y="430" />
            </Array>
          </mxGeometry>
        </mxCell>
        <mxCell id="F5Od4bGAPrUn6ZOEfaB5-32" value="" style="endArrow=classic;html=1;rounded=0;exitX=0.971;exitY=0.023;exitDx=0;exitDy=0;exitPerimeter=0;entryX=0;entryY=1;entryDx=0;entryDy=0;" edge="1" parent="1" source="UryQyH_QJODlCXosFNpq-1" target="F5Od4bGAPrUn6ZOEfaB5-8">
          <mxGeometry width="50" height="50" relative="1" as="geometry">
            <mxPoint x="350" y="220" as="sourcePoint" />
            <mxPoint x="400" y="170" as="targetPoint" />
            <Array as="points">
              <mxPoint x="290" y="350" />
              <mxPoint x="290" y="270" />
              <mxPoint x="385" y="270" />
            </Array>
          </mxGeometry>
        </mxCell>
        <mxCell id="F5Od4bGAPrUn6ZOEfaB5-35" value="" style="endArrow=classic;html=1;rounded=0;exitX=1.012;exitY=0.107;exitDx=0;exitDy=0;entryX=0.25;entryY=1;entryDx=0;entryDy=0;exitPerimeter=0;" edge="1" parent="1" source="F5Od4bGAPrUn6ZOEfaB5-5" target="F5Od4bGAPrUn6ZOEfaB5-7">
          <mxGeometry width="50" height="50" relative="1" as="geometry">
            <mxPoint x="270" y="170" as="sourcePoint" />
            <mxPoint x="320" y="120" as="targetPoint" />
            <Array as="points">
              <mxPoint x="280" y="223" />
              <mxPoint x="280" y="120" />
              <mxPoint x="425" y="120" />
            </Array>
          </mxGeometry>
        </mxCell>
        <mxCell id="F5Od4bGAPrUn6ZOEfaB5-36" value="" style="endArrow=classic;html=1;rounded=0;exitX=0.5;exitY=1;exitDx=0;exitDy=0;entryX=1;entryY=0.5;entryDx=0;entryDy=0;" edge="1" parent="1" source="F5Od4bGAPrUn6ZOEfaB5-8" target="UryQyH_QJODlCXosFNpq-1">
          <mxGeometry width="50" height="50" relative="1" as="geometry">
            <mxPoint x="400" y="310" as="sourcePoint" />
            <mxPoint x="450" y="260" as="targetPoint" />
            <Array as="points">
              <mxPoint x="455" y="350" />
              <mxPoint x="330" y="350" />
              <mxPoint x="330" y="375" />
            </Array>
          </mxGeometry>
        </mxCell>
        <mxCell id="F5Od4bGAPrUn6ZOEfaB5-37" value="" style="endArrow=classic;html=1;rounded=0;exitX=0.565;exitY=1.055;exitDx=0;exitDy=0;exitPerimeter=0;entryX=0.306;entryY=0.017;entryDx=0;entryDy=0;entryPerimeter=0;" edge="1" parent="1" source="UryQyH_QJODlCXosFNpq-3" target="F5Od4bGAPrUn6ZOEfaB5-11">
          <mxGeometry width="50" height="50" relative="1" as="geometry">
            <mxPoint x="670" y="230" as="sourcePoint" />
            <mxPoint x="720" y="180" as="targetPoint" />
          </mxGeometry>
        </mxCell>
        <mxCell id="F5Od4bGAPrUn6ZOEfaB5-38" value="Menu List" style="text;html=1;strokeColor=none;fillColor=none;align=center;verticalAlign=middle;whiteSpace=wrap;rounded=0;" vertex="1" parent="1">
          <mxGeometry x="260" y="50" width="60" height="30" as="geometry" />
        </mxCell>
        <mxCell id="F5Od4bGAPrUn6ZOEfaB5-39" value="List of Customer" style="text;html=1;strokeColor=none;fillColor=none;align=center;verticalAlign=middle;whiteSpace=wrap;rounded=0;" vertex="1" parent="1">
          <mxGeometry x="200" width="110" height="30" as="geometry" />
        </mxCell>
        <mxCell id="F5Od4bGAPrUn6ZOEfaB5-40" value="Order Info" style="text;html=1;strokeColor=none;fillColor=none;align=center;verticalAlign=middle;whiteSpace=wrap;rounded=0;" vertex="1" parent="1">
          <mxGeometry x="10" y="180" width="60" height="30" as="geometry" />
        </mxCell>
        <mxCell id="F5Od4bGAPrUn6ZOEfaB5-41" value="List of Customer" style="text;html=1;strokeColor=none;fillColor=none;align=center;verticalAlign=middle;whiteSpace=wrap;rounded=0;" vertex="1" parent="1">
          <mxGeometry x="590" width="110" height="30" as="geometry" />
        </mxCell>
        <mxCell id="F5Od4bGAPrUn6ZOEfaB5-43" value="Purchase Update" style="text;html=1;strokeColor=none;fillColor=none;align=center;verticalAlign=middle;whiteSpace=wrap;rounded=0;" vertex="1" parent="1">
          <mxGeometry x="330" y="320" width="110" height="30" as="geometry" />
        </mxCell>
        <mxCell id="F5Od4bGAPrUn6ZOEfaB5-44" value="Price Info" style="text;html=1;strokeColor=none;fillColor=none;align=center;verticalAlign=middle;whiteSpace=wrap;rounded=0;" vertex="1" parent="1">
          <mxGeometry x="300" y="390" width="60" height="30" as="geometry" />
        </mxCell>
        <mxCell id="F5Od4bGAPrUn6ZOEfaB5-45" value="Payment Info" style="text;html=1;strokeColor=none;fillColor=none;align=center;verticalAlign=middle;whiteSpace=wrap;rounded=0;" vertex="1" parent="1">
          <mxGeometry x="140" y="400" width="80" height="30" as="geometry" />
        </mxCell>
        <mxCell id="F5Od4bGAPrUn6ZOEfaB5-46" value="Address Info" style="text;html=1;strokeColor=none;fillColor=none;align=center;verticalAlign=middle;whiteSpace=wrap;rounded=0;" vertex="1" parent="1">
          <mxGeometry x="280" y="510" width="100" height="30" as="geometry" />
        </mxCell>
        <mxCell id="F5Od4bGAPrUn6ZOEfaB5-47" value="Receipt Details" style="text;html=1;strokeColor=none;fillColor=none;align=center;verticalAlign=middle;whiteSpace=wrap;rounded=0;" vertex="1" parent="1">
          <mxGeometry x="385" y="610" width="90" height="30" as="geometry" />
        </mxCell>
        <mxCell id="F5Od4bGAPrUn6ZOEfaB5-48" value="Transaction Details" style="text;html=1;strokeColor=none;fillColor=none;align=center;verticalAlign=middle;whiteSpace=wrap;rounded=0;" vertex="1" parent="1">
          <mxGeometry x="530" y="505" width="110" height="30" as="geometry" />
        </mxCell>
        <mxCell id="F5Od4bGAPrUn6ZOEfaB5-50" value="Payment Deatails" style="text;html=1;strokeColor=none;fillColor=none;align=center;verticalAlign=middle;whiteSpace=wrap;rounded=0;" vertex="1" parent="1">
          <mxGeometry x="500" y="255" width="100" height="30" as="geometry" />
        </mxCell>
        <mxCell id="F5Od4bGAPrUn6ZOEfaB5-51" value="Product Update" style="text;html=1;strokeColor=none;fillColor=none;align=center;verticalAlign=middle;whiteSpace=wrap;rounded=0;" vertex="1" parent="1">
          <mxGeometry x="540" y="180" width="90" height="30" as="geometry" />
        </mxCell>
        <mxCell id="F5Od4bGAPrUn6ZOEfaB5-52" value="Transaction Details" style="text;html=1;strokeColor=none;fillColor=none;align=center;verticalAlign=middle;whiteSpace=wrap;rounded=0;" vertex="1" parent="1">
          <mxGeometry x="600" y="375" width="110" height="30" as="geometry" />
        </mxCell>
        <mxCell id="F5Od4bGAPrUn6ZOEfaB5-53" value="List of Orders" style="text;html=1;strokeColor=none;fillColor=none;align=center;verticalAlign=middle;whiteSpace=wrap;rounded=0;" vertex="1" parent="1">
          <mxGeometry x="680" y="200" width="110" height="30" as="geometry" />
        </mxCell>
        <mxCell id="F5Od4bGAPrUn6ZOEfaB5-54" value="" style="endArrow=none;html=1;rounded=0;entryX=0;entryY=0.5;entryDx=0;entryDy=0;exitX=0.214;exitY=0;exitDx=0;exitDy=0;exitPerimeter=0;" edge="1" parent="1" source="UryQyH_QJODlCXosFNpq-1" target="F5Od4bGAPrUn6ZOEfaB5-1">
          <mxGeometry width="50" height="50" relative="1" as="geometry">
            <mxPoint x="40" y="140" as="sourcePoint" />
            <mxPoint x="90" y="90" as="targetPoint" />
            <Array as="points">
              <mxPoint x="80" y="115" />
            </Array>
          </mxGeometry>
        </mxCell>
        <mxCell id="F5Od4bGAPrUn6ZOEfaB5-55" value="" style="endArrow=classic;html=1;rounded=0;exitX=0.597;exitY=1.023;exitDx=0;exitDy=0;exitPerimeter=0;entryX=1;entryY=0.25;entryDx=0;entryDy=0;" edge="1" parent="1" source="F5Od4bGAPrUn6ZOEfaB5-7" target="F5Od4bGAPrUn6ZOEfaB5-5">
          <mxGeometry width="50" height="50" relative="1" as="geometry">
            <mxPoint x="460" y="130" as="sourcePoint" />
            <mxPoint x="230" y="250" as="targetPoint" />
            <Array as="points">
              <mxPoint x="474" y="150" />
              <mxPoint x="340" y="150" />
              <mxPoint x="340" y="240" />
            </Array>
          </mxGeometry>
        </mxCell>
        <mxCell id="F5Od4bGAPrUn6ZOEfaB5-56" value="Avatar Info" style="text;html=1;strokeColor=none;fillColor=none;align=center;verticalAlign=middle;whiteSpace=wrap;rounded=0;" vertex="1" parent="1">
          <mxGeometry x="280" y="90" width="90" height="30" as="geometry" />
        </mxCell>
        <mxCell id="F5Od4bGAPrUn6ZOEfaB5-57" value="Avatar Update" style="text;html=1;strokeColor=none;fillColor=none;align=center;verticalAlign=middle;whiteSpace=wrap;rounded=0;" vertex="1" parent="1">
          <mxGeometry x="340" y="120" width="110" height="30" as="geometry" />
        </mxCell>
        <mxCell id="F5Od4bGAPrUn6ZOEfaB5-58" value="" style="endArrow=none;html=1;rounded=0;exitX=0.5;exitY=1;exitDx=0;exitDy=0;entryX=0.833;entryY=-0.018;entryDx=0;entryDy=0;entryPerimeter=0;" edge="1" parent="1" source="F5Od4bGAPrUn6ZOEfaB5-5" target="UryQyH_QJODlCXosFNpq-1">
          <mxGeometry width="50" height="50" relative="1" as="geometry">
            <mxPoint x="30" y="90" as="sourcePoint" />
            <mxPoint x="80" y="40" as="targetPoint" />
          </mxGeometry>
        </mxCell>
        <mxCell id="F5Od4bGAPrUn6ZOEfaB5-59" value="Avatar Edit" style="text;html=1;strokeColor=none;fillColor=none;align=center;verticalAlign=middle;whiteSpace=wrap;rounded=0;" vertex="1" parent="1">
          <mxGeometry x="70" y="330" width="110" height="30" as="geometry" />
        </mxCell>
        <mxCell id="F5Od4bGAPrUn6ZOEfaB5-60" value="Select Product" style="text;html=1;strokeColor=none;fillColor=none;align=center;verticalAlign=middle;whiteSpace=wrap;rounded=0;" vertex="1" parent="1">
          <mxGeometry x="295" y="240" width="90" height="30" as="geometry" />
        </mxCell>
      </root>
    </mxGraphModel>
  </diagram>
</mxfile>
